:SAMPLES-PER-SECOND 30
:FULLY-SPECIFIED
:DEGREES
422
root  -20.0588 30.4615 -9.16423 18.275 32.5928 1.10015
RightUpLeg  -46.7315 10.2041 -18.7698
RightLeg  49.9655 0.977963 0.976378
RightFoot  -7.65 0.0177306 0.642805
RightToes  -46.8093 -0.275034 -0.350269
Spine  14.6331 3.14677 2.53003
Spine1  26.6041 7.72689 1.50737
HEad  8.38104 23.863 -19.6093
LeftShoulder1  0 -2.42657e-020 -4.95415e-022
LeftArm  -22.0292 -8.33119 -93.5094
LeftForeArm  35.4787 -38.2205 -7.9762
LeftHand  0.0337697 -11.9722 -0.692399
RightShoulder  0 2.42657e-020 1.07489e-018
RightArm  -7.15738 21.3254 72.2437
RightForeArm  73.7426 46.9612 10.8072
RightHand  -8.46833 22.9768 -39.6703
LeftUpLeg  -53.6527 9.86045 5.79089
LeftLeg  59.1559 -5.78268 -8.34225
LeftFoot  2.26406 0.00840086 -0.425148
LeftToes  -33.6728 2.34596e-006 -6.06653e-008
423
root  -19.8716 29.4574 -9.37894 21.0368 34.5905 4.84655
RightUpLeg  -50.8682 13.2838 -26.3695
RightLeg  54.6403 1.30579 1.54697
RightFoot  -9.94699 0.0419602 0.859783
RightToes  -53.1117 -0.330752 -0.376612
Spine  16.0798 4.26715 2.75192
Spine1  28.6845 11.0625 0.238353
HEad  7.9598 19.912 -19.5589
LeftShoulder1  0 -2.42657e-020 -4.95415e-022
LeftArm  -18.5619 -11.3191 -95.1345
LeftForeArm  35.6813 -39.008 -8.20673
LeftHand  0.00822024 -12.3371 -0.446258
RightShoulder  0 2.42657e-020 1.07489e-018
RightArm  -13.7144 27.484 70.5132
RightForeArm  70.4404 35.032 7.02263
RightHand  -7.51966 23.3311 -34.9505
LeftUpLeg  -58.8525 9.75466 3.66603
LeftLeg  66.3902 -8.38737 -15.799
LeftFoot  1.86701 0.00995392 -0.610892
LeftToes  -41.6269 2.34596e-006 -6.06653e-008
424
root  -19.7435 28.0366 -9.56572 23.36 37.0062 7.82149
RightUpLeg  -53.5427 11.9938 -30.6595
RightLeg  61.9426 1.9235 3.00692
RightFoot  -16.6574 0.0165029 0.490297
RightToes  -56.9826 -0.366284 -0.389699
Spine  16.9305 4.91631 3.56296
Spine1  29.9408 13.1321 0.718496
HEad  7.90347 16.1814 -19.345
LeftShoulder1  0 -2.42657e-020 -4.95415e-022
LeftArm  -15.661 -13.3232 -96.9459
LeftForeArm  35.449 -39.3703 -8.31491
LeftHand  0.0223219 -12.559 -0.573117
RightShoulder  0 2.42657e-020 1.07489e-018
RightArm  -26.7116 32.6822 66.3855
RightForeArm  65.0514 23.4971 4.33285
RightHand  -4.7434 22.893 -22.757
LeftUpLeg  -63.3116 8.66371 4.56514
LeftLeg  72.0558 -6.02682 -14.8502
LeftFoot  -0.979574 0.000252772 0.0295596
LeftToes  -41.3543 2.34596e-006 -6.06653e-008
425
root  -19.6751 26.5053 -9.71225 24.4278 38.9464 8.721
RightUpLeg  -56.5433 8.89651 -31.3999
RightLeg  69.7042 1.72572 3.70851
RightFoot  -22.1122 -0.0258641 0.245189
RightToes  -56.1642 -0.358699 -0.387132
Spine  17.2739 5.12395 5.01944
Spine1  30.6272 13.8858 2.61765
HEad  7.3275 13.5763 -19.3038
LeftShoulder1  0 -2.42657e-020 -4.95415e-022
LeftArm  -14.043 -13.976 -97.8282
LeftForeArm  34.7879 -40.1859 -8.5628
LeftHand  -0.0315728 -12.3377 -0.0778872
RightShoulder  0 2.42657e-020 1.07489e-018
RightArm  -50.931 36.2805 59.532
RightForeArm  50.7071 12.3754 2.18949
RightHand  -1.01943 21.8659 -4.90528
LeftUpLeg  -66.3894 7.96938 9.5055
LeftLeg  75.2509 -2.64064 -7.89166
LeftFoot  -3.23212 -0.00989975 -0.3509
LeftToes  -34.6227 2.34596e-006 -6.06653e-008
426
root  -19.4853 25.3346 -9.76582 24.005 41.4184 7.96072
RightUpLeg  -58.0014 8.11701 -31.1027
RightLeg  75.4947 0.91219 2.51995
RightFoot  -25.0653 0.0949306 0.804623
RightToes  -56.8743 -0.360257 -0.387341
Spine  17.2826 4.31231 6.60797
Spine1  31.087 12.2037 4.72258
HEad  4.35373 12.7717 -19.5758
LeftShoulder1  0 -2.42657e-020 -4.95415e-022
LeftArm  -14.6235 -13.8721 -97.0544
LeftForeArm  33.7651 -41.7133 -9.04388
LeftHand  -0.0613399 -11.66 0.23093
RightShoulder  0 2.42657e-020 1.07489e-018
RightArm  -63.4192 35.3158 54.4799
RightForeArm  39.6842 10.9249 1.93963
RightHand  0.499245 21.867 2.95484
LeftUpLeg  -66.769 6.90689 17.1954
LeftLeg  74.1982 -1.30373 -3.69915
LeftFoot  -4.31345 -0.0433503 -1.15107
LeftToes  -29.0845 2.34596e-006 -6.06653e-008
427
root  -19.0508 24.5473 -9.94955 24.6767 44.7709 8.70654
RightUpLeg  -56.8515 5.62765 -31.6358
RightLeg  78.5801 0.615639 1.94974
RightFoot  -27.6173 0.175528 1.09173
RightToes  -56.8777 -0.365309 -0.388668
Spine  16.4289 2.65298 6.94862
Spine1  29.9503 9.24477 4.33077
HEad  0.887719 13.7475 -18.6746
LeftShoulder1  0 -2.42657e-020 -4.95415e-022
LeftArm  -16.4265 -11.6866 -93.7937
LeftForeArm  31.2811 -44.3285 -9.92565
LeftHand  -0.0818274 -10.6904 0.504929
RightShoulder  0 2.42657e-020 1.07489e-018
RightArm  -53.4278 31.681 55.7357
RightForeArm  25.0453 17.0505 3.09623
RightHand  1.2278 21.9803 6.68805
LeftUpLeg  -65.4592 4.22047 24.0892
LeftLeg  68.2337 -1.23231 -2.60228
LeftFoot  -3.62098 -0.0467518 -1.47897
LeftToes  -29.1405 2.34596e-006 -6.06653e-008
428
root  -18.3982 24.1184 -10.1768 24.2034 47.5605 8.16243
RightUpLeg  -54.411 4.06676 -31.5029
RightLeg  79.107 0.36504 1.05679
RightFoot  -28.7448 0.274434 1.44855
RightToes  -57.5644 -0.371697 -0.391052
Spine  15.3818 1.19255 6.98124
Spine1  28.7555 6.83981 3.00172
HEad  -1.01271 15.8492 -17.9814
LeftShoulder1  0 -2.42657e-020 -4.95415e-022
LeftArm  -18.6741 -7.86899 -90.2931
LeftForeArm  28.401 -47.1567 -10.9754
LeftHand  -0.128035 -9.6844 1.14216
RightShoulder  0 2.42657e-020 1.07489e-018
RightArm  -43.3885 27.3101 58.5848
RightForeArm  12.0372 26.0195 4.9308
RightHand  1.86939 22.8923 9.58626
LeftUpLeg  -62.3143 1.78275 31.2386
LeftLeg  59.8755 -1.40134 -2.10214
LeftFoot  -2.27454 -0.0298787 -1.50501
LeftToes  -28.772 2.34596e-006 -6.06653e-008
429
root  -17.4454 24.0473 -10.4503 21.5595 49.4425 5.97226
RightUpLeg  -50.1102 3.94874 -30.7011
RightLeg  76.8311 0.148308 0.205537
RightFoot  -28.6443 0.319204 1.62781
RightToes  -58.5934 -0.381315 -0.394432
Spine  14.6274 0.443142 6.89371
Spine1  28.04 5.26102 2.58975
HEad  -0.731233 16.8172 -16.3499
LeftShoulder1  0 -2.42657e-020 -4.95415e-022
LeftArm  -19.4665 -4.24755 -88.3241
LeftForeArm  25.4641 -48.5461 -11.5343
LeftHand  -0.0846154 -8.69549 0.743552
RightShoulder  0 2.42657e-020 1.07489e-018
RightArm  -37.1139 22.1927 59.0217
RightForeArm  11.0993 36.3537 7.454
RightHand  2.05342 24.0701 9.98263
LeftUpLeg  -57.2299 -0.795311 37.7952
LeftLeg  51.1702 -2.37164 -2.59237
LeftFoot  -0.159457 -0.00195939 -1.40799
LeftToes  -24.8389 2.34596e-006 -6.06653e-008
430
root  -16.1508 24.2847 -10.9497 18.6297 50.6496 3.61479
RightUpLeg  -44.5241 2.61807 -30.3415
RightLeg  71.6892 0.468167 0.968023
RightFoot  -27.0161 0.137242 0.94887
RightToes  -60.8388 -0.402479 -0.400321
Spine  13.8322 0.00483444 6.6243
Spine1  27.1144 4.1618 2.34554
HEad  1.44865 17.3652 -13.6877
LeftShoulder1  0 -2.42657e-020 -4.95415e-022
LeftArm  -19.2305 1.74523 -87.4702
LeftForeArm  24.786 -54.4545 -14.3269
LeftHand  -0.00371365 -8.2487 -0.318716
RightShoulder  0 2.42657e-020 1.07489e-018
RightArm  -35.5982 19.5059 58.2742
RightForeArm  2.00727 42.3794 9.25042
RightHand  2.0086 22.6026 10.3991
LeftUpLeg  -51.8387 -2.8622 41.5452
LeftLeg  43.2196 -7.55632 -6.20087
LeftFoot  6.44797 0.123922 -2.19972
LeftToes  -26.718 2.34596e-006 -6.06653e-008
431
root  -14.5 24.6982 -11.8389 16.4591 50.5916 0.839911
RightUpLeg  -39.0883 0.649971 -30.8428
RightLeg  63.2112 1.58881 2.59044
RightFoot  -23.4108 -0.0708643 0.0355214
RightToes  -63.5777 -0.42858 -0.406374
Spine  13.2522 -0.0388509 6.49933
Spine1  26.3117 4.11232 2.02136
HEad  3.65359 18.2472 -10.6876
LeftShoulder1  0 -2.42657e-020 -4.95415e-022
LeftArm  -18.4954 7.87792 -88.7701
LeftForeArm  26.4385 -61.8793 -19.3492
LeftHand  0.0365654 -7.61387 -0.920292
RightShoulder  0 2.42657e-020 1.07489e-018
RightArm  -34.4931 20.3702 55.2544
RightForeArm  -0.160816 44.3611 9.91961
RightHand  2.44233 21.2872 13.3163
LeftUpLeg  -47.8372 -0.284155 40.8496
LeftLeg  38.3095 -14.2996 -9.68429
LeftFoot  6.33818 0.162587 -2.93588
LeftToes  -60.9993 2.34596e-006 -6.06653e-008
432
root  -12.6238 25.4174 -13.2948 16.6355 48.3767 -0.561006
RightUpLeg  -34.7703 -1.31798 -33.1127
RightLeg  51.1517 3.90507 4.197
RightFoot  -15.75 -0.0949883 -0.309203
RightToes  -67.1304 -0.462815 -0.412356
Spine  13.0253 1.01327 6.0955
Spine1  25.8645 6.53614 1.16067
HEad  3.62594 17.9262 -9.73205
LeftShoulder1  0 -2.42657e-020 -4.95415e-022
LeftArm  -16.9027 12.0037 -92.2748
LeftForeArm  29.4254 -67.7042 -25.6179
LeftHand  0.179279 -7.64885 -3.05412
RightShoulder  0 2.42657e-020 1.07489e-018
RightArm  -32.5329 23.9685 51.8498
RightForeArm  -3.07466 45.0885 10.1724
RightHand  2.53481 21.1061 13.9192
LeftUpLeg  -46.2355 1.87113 37.9781
LeftLeg  37.5875 -17.9218 -11.6899
LeftFoot  -0.27174 -0.00209216 -0.882237
LeftToes  -63.4219 2.34596e-006 -6.06653e-008
433
root  -10.9871 26.425 -14.8936 17.667 43.537 -2.20609
RightUpLeg  -33.79 5.3349 -35.1592
RightLeg  40.4334 -3.97506 -2.98569
RightFoot  -8.52192 0.117164 1.95018
RightToes  -47.5545 -0.281466 -0.353701
Spine  13.4446 3.69135 5.18532
Spine1  26.3251 12.4864 -0.332926
HEad  1.85644 15.7456 -8.96338
LeftShoulder1  0 -2.42657e-020 -4.95415e-022
LeftArm  -14.1056 12.5147 -95.6006
LeftForeArm  35.7476 -71.4346 -31.898
LeftHand  0.258634 -8.26077 -3.9536
RightShoulder  0 2.42657e-020 1.07489e-018
RightArm  -33.9598 30.6251 50.4235
RightForeArm  -2.58759 45.3561 10.2704
RightHand  3.23408 21.6262 17.1903
LeftUpLeg  -47.5572 5.59452 34.4653
LeftLeg  42.5449 -17.8049 -13.8476
LeftFoot  -2.71325 0.0047124 0.198978
LeftToes  -62.7372 2.34596e-006 -6.06653e-008
434
root  -9.78019 27.5057 -16.3114 21.1604 40.2374 -1.68564
RightUpLeg  -34.3843 11.207 -35.9304
RightLeg  39.7588 -15.9972 -11.3626
RightFoot  -10.6847 0.409266 4.75233
RightToes  -29.6889 -0.141785 -0.249798
Spine  13.202 6.54811 3.04582
Spine1  24.9628 18.2587 -1.88525
HEad  1.11504 9.7167 -4.9499
LeftShoulder1  0 -2.42657e-020 -4.95415e-022
LeftArm  -8.05827 8.45441 -94.5637
LeftForeArm  35.8765 -72.8549 -35.1294
LeftHand  0.369212 -7.92641 -5.70026
RightShoulder  0 2.42657e-020 1.07489e-018
RightArm  -36.8042 39.0369 50.1955
RightForeArm  -0.534918 44.0571 9.81259
RightHand  3.84988 22.1709 19.8429
LeftUpLeg  -50.3209 6.82841 30.4178
LeftLeg  44.467 -16.2089 -13.546
LeftFoot  -1.59522 -0.000616798 -0.0443133
LeftToes  -60.3582 2.34596e-006 -6.06653e-008
435
root  -8.66145 28.2344 -17.5218 24.2858 40.8685 0.359842
RightUpLeg  -32.3461 5.21264 -31.1373
RightLeg  45.9455 -10.4995 -9.42968
RightFoot  -11.4163 0.366492 4.04307
RightToes  -37.0065 -0.195022 -0.297595
Spine  13.3259 8.33697 0.875643
Spine1  24.167 22.0312 -3.72216
HEad  0.562264 1.04315 0.827872
LeftShoulder1  0 -2.42657e-020 -4.95415e-022
LeftArm  -5.78918 1.58559 -94.6339
LeftForeArm  39.1064 -74.6408 -40.2841
LeftHand  0.374566 -7.147 -6.36847
RightShoulder  0 2.42657e-020 1.07489e-018
RightArm  -40.1875 50.1264 49.1965
RightForeArm  3.61998 40.3415 8.6049
RightHand  4.26034 22.3785 21.6746
LeftUpLeg  -52.961 4.85211 25.86
LeftLeg  43.5782 -14.6044 -11.9093
LeftFoot  -1.42309 0.00192702 0.155152
LeftToes  -55.3908 2.34596e-006 -6.06653e-008
